<svg width="24" height="24" viewBox="0 0 24 24" fill="none" xmlns="http://www.w3.org/2000/svg">
<path d="M6.94048 5.00091C6.94011 5.81522 6.44608 6.548 5.69134 6.85371C4.9366 7.15943 4.07187 6.97703 3.5049 6.39253C2.93793 5.80802 2.78195 4.93813 3.1105 4.19305C3.43906 3.44797 4.18654 2.97648 5.00048 3.00091C6.08155 3.03336 6.94097 3.91935 6.94048 5.00091ZM7.00048 8.48091H3.00048V21.0009H7.00048V8.48091ZM13.3205 8.48091H9.34048V21.0009H13.2805V14.4309C13.2805 10.7709 18.0505 10.4309 18.0505 14.4309V21.0009H22.0005V13.0709C22.0005 6.90091 14.9405 7.13091 13.2805 10.1609L13.3205 8.48091Z" fill="white"/>
</svg>
