<svg width="24" height="24" viewBox="0 0 24 24" fill="none" xmlns="http://www.w3.org/2000/svg">
<path d="M15.3499 5.55078C13.7681 5.55078 12.4786 6.81882 12.4504 8.39731L12.4223 9.97235C12.4164 10.3036 12.143 10.5674 11.8117 10.5615C11.7881 10.5611 11.7646 10.5593 11.7413 10.5561L10.1805 10.3433C8.12699 10.0632 6.15883 9.11809 4.27072 7.54484C3.67275 10.8545 4.84 13.1479 7.65342 14.9167L9.40041 16.0149C9.68095 16.1913 9.7654 16.5617 9.58903 16.8422C9.54861 16.9065 9.49636 16.9626 9.43504 17.0074L7.84338 18.1703C8.78973 18.2297 9.68938 18.1882 10.435 18.0394C15.1526 17.098 18.2897 13.5477 18.2897 7.69182C18.2897 7.21373 17.2774 5.55078 15.3499 5.55078ZM10.4507 8.36163C10.4983 5.69657 12.6735 3.55078 15.3499 3.55078C16.7132 3.55078 17.9465 4.10756 18.8348 5.00613C19.5462 5.00078 20.1514 5.18064 21.5035 4.3604C21.1693 6.00078 21.0034 6.71274 20.2897 7.69182C20.2897 15.3333 15.5926 19.0496 10.8264 20.0007C7.5587 20.6529 2.80646 19.5822 1.44531 18.1594C2.13874 18.1061 4.95928 17.8027 6.58895 16.6099C5.20994 15.6994 -0.278628 12.4688 3.32772 3.78715C5.02119 5.7638 6.73797 7.10928 8.47807 7.82359C9.63548 8.29871 9.91978 8.28923 10.4507 8.36163Z" fill="white"/>
</svg>
